<svg width="64" height="64" viewBox="0 0 64 64" xmlns="http://www.w3.org/2000/svg">
  <defs>
    <!-- 渐变定义 -->
    <linearGradient id="iconGradient" x1="0%" y1="0%" x2="100%" y2="100%">
      <stop offset="0%" style="stop-color:#1677ff;stop-opacity:1" />
      <stop offset="100%" style="stop-color:#52c41a;stop-opacity:1" />
    </linearGradient>
    <linearGradient id="iconSecondary" x1="0%" y1="0%" x2="100%" y2="100%">
      <stop offset="0%" style="stop-color:#52c41a;stop-opacity:0.9" />
      <stop offset="100%" style="stop-color:#1677ff;stop-opacity:0.9" />
    </linearGradient>
  </defs>
  
  <!-- 背景 -->
  <rect width="64" height="64" rx="12" fill="url(#iconGradient)"/>
  
  <!-- 树干 -->
  <rect x="29" y="40" width="6" height="15" rx="3" fill="white"/>
  
  <!-- 主节点 -->
  <circle cx="32" cy="42" r="2.5" fill="white"/>
  
  <!-- 左分支 -->
  <line x1="32" y1="42" x2="20" y2="32" stroke="white" stroke-width="2" stroke-linecap="round"/>
  <circle cx="20" cy="32" r="2" fill="white"/>
  
  <!-- 左子分支 -->
  <line x1="20" y1="32" x2="12" y2="25" stroke="rgba(255,255,255,0.8)" stroke-width="1.5" stroke-linecap="round"/>
  <circle cx="12" cy="25" r="1.5" fill="rgba(255,255,255,0.8)"/>
  
  <line x1="20" y1="32" x2="15" y2="38" stroke="rgba(255,255,255,0.8)" stroke-width="1.5" stroke-linecap="round"/>
  <circle cx="15" cy="38" r="1.5" fill="rgba(255,255,255,0.8)"/>
  
  <!-- 右分支 -->
  <line x1="32" y1="42" x2="44" y2="32" stroke="white" stroke-width="2" stroke-linecap="round"/>
  <circle cx="44" cy="32" r="2" fill="white"/>
  
  <!-- 右子分支 -->
  <line x1="44" y1="32" x2="52" y2="25" stroke="rgba(255,255,255,0.8)" stroke-width="1.5" stroke-linecap="round"/>
  <circle cx="52" cy="25" r="1.5" fill="rgba(255,255,255,0.8)"/>
  
  <line x1="44" y1="32" x2="49" y2="38" stroke="rgba(255,255,255,0.8)" stroke-width="1.5" stroke-linecap="round"/>
  <circle cx="49" cy="38" r="1.5" fill="rgba(255,255,255,0.8)"/>
  
  <!-- 顶部分支 -->
  <line x1="32" y1="42" x2="32" y2="25" stroke="white" stroke-width="2" stroke-linecap="round"/>
  <circle cx="32" cy="25" r="2" fill="white"/>
  
  <!-- 顶部分叉 -->
  <line x1="32" y1="25" x2="26" y2="15" stroke="rgba(255,255,255,0.8)" stroke-width="1.5" stroke-linecap="round"/>
  <circle cx="26" cy="15" r="1.5" fill="rgba(255,255,255,0.8)"/>
  
  <line x1="32" y1="25" x2="38" y2="15" stroke="rgba(255,255,255,0.8)" stroke-width="1.5" stroke-linecap="round"/>
  <circle cx="38" cy="15" r="1.5" fill="rgba(255,255,255,0.8)"/>
</svg>
